# xmcd CD database file
# Copyright (C) 1996 Ti Kan
#
# Track frame offsets:
#	182
#	13927
#	33115
#
# Disc length: 622 seconds
#
# Revision: 1
# Processed by: cddbd v1.4b41PL1 Copyright (c) Steve Scherf et al.
# Submitted via: EasyCD 2.21 - (C) 1996 Greg Leichner
#
DISCID=19026c03
DTITLE=Gary Rex Tanner - Max and the I.R.S.
DYEAR=1900
DGENRE=
TTITLE0=Max and the I.R.S.
TTITLE1=Atlas Shrugged
TTITLE2=Max and the I.R.S. (bleeped)
EXTD=
EXTT0=
EXTT1=
EXTT2=
PLAYORDER=
